<?xml version="1.0" encoding="UTF-8"?>
<!DOCTYPE svg PUBLIC "-//W3C//DTD SVG 1.1//EN" "http://www.w3.org/Graphics/SVG/1.1/DTD/svg11.dtd">
<!-- Creator: CorelDRAW 2019 (64-Bit) -->
<svg xmlns="http://www.w3.org/2000/svg" xml:space="preserve" width="33.8666mm" height="33.8666mm" version="1.1" style="shape-rendering:geometricPrecision; text-rendering:geometricPrecision; image-rendering:optimizeQuality; fill-rule:evenodd; clip-rule:evenodd"
viewBox="0 0 3386.66 3386.66"
 xmlns:xlink="http://www.w3.org/1999/xlink">
 <defs>
  <style type="text/css">
   <![CDATA[
    .str0 {stroke:#373435;stroke-width:20;stroke-miterlimit:22.9256}
    .fil0 {fill:#373435}
   ]]>
  </style>
 </defs>
 <g id="Capa_x0020_1">
  <metadata id="CorelCorpID_0Corel-Layer"/>
  <path class="fil0 str0" d="M1631.67 540.99c675.55,0 1223.2,555.4 1223.2,1240.51 0,685.11 -547.65,1240.51 -1223.2,1240.51 -675.55,0 -1223.19,-555.4 -1223.19,-1240.51 0,-685.11 547.64,-1240.51 1223.19,-1240.51zm-790.98 1486.66l999.29 0 0 -1122.36 999.28 0 30.4 11.75 19.83 45.54 -15.53 36.95 -34.7 29.16 -898.83 0c0,46.27 0,92.54 0,138.82 0,46.28 0,92.55 0,138.83 0,46.27 0,92.55 0,138.82 0,46.28 0,92.55 0,138.83 0,46.27 0,92.55 0,138.83 0,46.27 0,92.54 0,138.82 0,46.27 0,92.55 0,138.83 0,46.28 0,92.55 0,138.82l-1099.74 0 -39.72 -21.97 -13.15 -42.66 11.25 -33.22 41.62 -13.79z"/>
 </g>
</svg>
